<svg xmlns="http://www.w3.org/2000/svg" viewBox="0 0 1040 420" role="img" aria-labelledby="title desc" lang="zh">
<title id="title">由研究问题选择模型表示</title><desc id="desc">由研究问题选择模型表示. 课程绘制的结构图或计算响应。</desc>
<defs><marker id="arrow0" viewBox="0 0 10 10" refX="9" refY="5" markerWidth="6" markerHeight="6" orient="auto-start-reverse"><path d="M0 0L10 5L0 10z" fill="#17374b"/></marker><marker id="arrow1" viewBox="0 0 10 10" refX="9" refY="5" markerWidth="6" markerHeight="6" orient="auto-start-reverse"><path d="M0 0L10 5L0 10z" fill="#2f7095"/></marker><marker id="arrow2" viewBox="0 0 10 10" refX="9" refY="5" markerWidth="6" markerHeight="6" orient="auto-start-reverse"><path d="M0 0L10 5L0 10z" fill="#bd733d"/></marker><marker id="arrow3" viewBox="0 0 10 10" refX="9" refY="5" markerWidth="6" markerHeight="6" orient="auto-start-reverse"><path d="M0 0L10 5L0 10z" fill="#377e70"/></marker><marker id="arrow4" viewBox="0 0 10 10" refX="9" refY="5" markerWidth="6" markerHeight="6" orient="auto-start-reverse"><path d="M0 0L10 5L0 10z" fill="#667c87"/></marker></defs>
<style>text{font-family:Arial,"PingFang SC","Microsoft YaHei",sans-serif} .small{font-size:17px} .label{font-size:20px;font-weight:600} .note{font-size:18px} .title{font-size:26px;font-weight:600}</style>
<rect width="1040" height="420" rx="18" fill="#fbfcfc"/>
<rect x="32" y="45" width="288" height="290" rx="10" fill="#fff" stroke="#d7e1e5"/>
<text x="56" y="79" font-size="17" fill="#2f7095" text-anchor="start" font-weight="600">01</text>
<text x="56" y="119" font-size="25" fill="#17374b" text-anchor="start" font-weight="600">开关表示</text>
<path d="M56.00 185.28 L60.00 170.97 L64.00 167.30 L68.00 174.38 L72.00 171.17 L76.00 157.75 L80.00 155.30 L84.00 163.90 L88.00 162.45 L92.00 151.02 L96.00 150.72 L100.00 161.58 L104.00 162.45 L108.00 153.34 L112.00 155.30 L116.00 168.31 L120.00 171.17 L124.00 163.82 L128.00 167.30 L132.00 181.53 L136.00 185.28 L140.00 178.47 L144.00 182.14 L148.00 196.18 L152.00 199.39 L156.00 191.69 L160.00 204.70 L164.00 206.66 L168.00 208.11 L172.00 198.42 L176.00 198.72 L180.00 208.98 L184.00 208.11 L188.00 196.10 L192.00 194.14 L196.00 202.25 L200.00 199.39 L204.00 185.62 L208.00 182.14 L212.00 189.03 L216.00 185.28 L220.00 170.97 L224.00 177.86 L228.00 174.38 L232.00 171.17 L236.00 157.75 L240.00 165.86 L244.00 163.90 L248.00 162.45 L252.00 151.02 L256.00 161.28 L260.00 161.58 L264.00 151.89 L268.00 153.34 L272.00 155.30 L276.00 168.31 L280.00 171.17 L284.00 163.82 L288.00 167.30 L292.00 181.53 L296.00 185.28" fill="none" stroke="#2f7095" stroke-width="2.5" stroke-linecap="round" stroke-linejoin="round"/>
<text x="56" y="242" font-size="18" fill="#667c87" text-anchor="start" font-weight="400">具体开关动作</text>
<text x="56" y="290" font-size="18" fill="#17374b" text-anchor="start" font-weight="600">纹波 / 开关影响</text>
<rect x="376" y="45" width="288" height="290" rx="10" fill="#fff" stroke="#d7e1e5"/>
<text x="400" y="79" font-size="17" fill="#377e70" text-anchor="start" font-weight="600">02</text>
<text x="400" y="119" font-size="25" fill="#17374b" text-anchor="start" font-weight="600">平均 dq 表示</text>
<path d="M400.00 180.00 L404.00 176.25 L408.00 172.58 L412.00 169.10 L416.00 165.89 L420.00 163.03 L424.00 160.58 L428.00 158.62 L432.00 157.17 L436.00 156.30 L440.00 156.00 L444.00 156.30 L448.00 157.17 L452.00 158.62 L456.00 160.58 L460.00 163.03 L464.00 165.89 L468.00 169.10 L472.00 172.58 L476.00 176.25 L480.00 180.00 L484.00 183.75 L488.00 187.42 L492.00 190.90 L496.00 194.11 L500.00 196.97 L504.00 199.42 L508.00 201.38 L512.00 202.83 L516.00 203.70 L520.00 204.00 L524.00 203.70 L528.00 202.83 L532.00 201.38 L536.00 199.42 L540.00 196.97 L544.00 194.11 L548.00 190.90 L552.00 187.42 L556.00 183.75 L560.00 180.00 L564.00 176.25 L568.00 172.58 L572.00 169.10 L576.00 165.89 L580.00 163.03 L584.00 160.58 L588.00 158.62 L592.00 157.17 L596.00 156.30 L600.00 156.00 L604.00 156.30 L608.00 157.17 L612.00 158.62 L616.00 160.58 L620.00 163.03 L624.00 165.89 L628.00 169.10 L632.00 172.58 L636.00 176.25 L640.00 180.00" fill="none" stroke="#377e70" stroke-width="2.5" stroke-linecap="round" stroke-linejoin="round"/>
<text x="400" y="242" font-size="18" fill="#667c87" text-anchor="start" font-weight="400">电路与控制状态</text>
<text x="400" y="290" font-size="18" fill="#17374b" text-anchor="start" font-weight="600">LCL / 内环相互作用</text>
<rect x="720" y="45" width="288" height="290" rx="10" fill="#fff" stroke="#d7e1e5"/>
<text x="744" y="79" font-size="17" fill="#bd733d" text-anchor="start" font-weight="600">03</text>
<text x="744" y="119" font-size="25" fill="#17374b" text-anchor="start" font-weight="600">低频表示</text>
<path d="M744.00 180.00 L748.00 176.25 L752.00 172.58 L756.00 169.10 L760.00 165.89 L764.00 163.03 L768.00 160.58 L772.00 158.62 L776.00 157.17 L780.00 156.30 L784.00 156.00 L788.00 156.30 L792.00 157.17 L796.00 158.62 L800.00 160.58 L804.00 163.03 L808.00 165.89 L812.00 169.10 L816.00 172.58 L820.00 176.25 L824.00 180.00 L828.00 183.75 L832.00 187.42 L836.00 190.90 L840.00 194.11 L844.00 196.97 L848.00 199.42 L852.00 201.38 L856.00 202.83 L860.00 203.70 L864.00 204.00 L868.00 203.70 L872.00 202.83 L876.00 201.38 L880.00 199.42 L884.00 196.97 L888.00 194.11 L892.00 190.90 L896.00 187.42 L900.00 183.75 L904.00 180.00 L908.00 176.25 L912.00 172.58 L916.00 169.10 L920.00 165.89 L924.00 163.03 L928.00 160.58 L932.00 158.62 L936.00 157.17 L940.00 156.30 L944.00 156.00 L948.00 156.30 L952.00 157.17 L956.00 158.62 L960.00 160.58 L964.00 163.03 L968.00 165.89 L972.00 169.10 L976.00 172.58 L980.00 176.25 L984.00 180.00" fill="none" stroke="#bd733d" stroke-width="2.5" stroke-linecap="round" stroke-linejoin="round"/>
<text x="744" y="242" font-size="18" fill="#667c87" text-anchor="start" font-weight="400">选定包络状态</text>
<text x="744" y="290" font-size="18" fill="#17374b" text-anchor="start" font-weight="600">同步 / 功率响应</text>
<text x="32" y="396" font-size="17" fill="#667c87" text-anchor="start" font-weight="400">保留的动态不同，能回答的问题不同；波形为示意图。</text>
</svg>
