<svg xmlns="http://www.w3.org/2000/svg" viewBox="0 0 800 460" role="img"><title>ECE 685 教学模型图</title><style>.ed-wire{fill:none;stroke:#29262e;stroke-width:2.3;stroke-linecap:round;stroke-linejoin:round}.ed-axis{fill:none;stroke:#b9b1c3;stroke-width:1}.ed-text{font:14px system-ui,sans-serif;fill:#696273}.ed-label{font:16px system-ui,sans-serif;fill:#29262e}.ed-heading{font:600 17px system-ui,sans-serif;fill:#512888}.ed-math{font:italic 21px Georgia,"Times New Roman",serif;fill:#29262e}.ed-small{font:12px system-ui,sans-serif;fill:#696273}.ed-core{stroke:#8b8691;stroke-width:1.4;fill:none}.stage-circuit-wire{fill:none;stroke:#29262e;stroke-width:2.4;stroke-linecap:round;stroke-linejoin:round}.stage-circuit-core{fill:none;stroke:#8b8691;stroke-width:1.4}.stage-circuit-symbol{font:italic 22px Georgia,"Times New Roman",serif;fill:#29262e}.stage-circuit-value{font:14px system-ui,sans-serif;fill:#5a5363}.stage-circuit-heading{font:600 16px system-ui,sans-serif;fill:#512888}</style><defs><marker id="ed-generation-purple" viewBox="0 0 10 10" refX="9" refY="5" markerWidth="5" markerHeight="5" orient="auto"><path d="M0 0L10 5L0 10Z" fill="#512888"/></marker><marker id="ed-generation-red" viewBox="0 0 10 10" refX="9" refY="5" markerWidth="5" markerHeight="5" orient="auto"><path d="M0 0L10 5L0 10Z" fill="#a33e3e"/></marker><marker id="ed-generation-blue" viewBox="0 0 10 10" refX="9" refY="5" markerWidth="5" markerHeight="5" orient="auto"><path d="M0 0L10 5L0 10Z" fill="#0877a0"/></marker><marker id="ed-generation-gold" viewBox="0 0 10 10" refX="9" refY="5" markerWidth="5" markerHeight="5" orient="auto"><path d="M0 0L10 5L0 10Z" fill="#b57813"/></marker><marker id="ed-generation-teal" viewBox="0 0 10 10" refX="9" refY="5" markerWidth="5" markerHeight="5" orient="auto"><path d="M0 0L10 5L0 10Z" fill="#087e75"/></marker></defs><text x="400" y="29" text-anchor="middle" class="ed-heading">容量规划：日峰值与年度净负荷分别核查</text><text x="45" y="65" text-anchor="start" class="ed-label">L03 · 日峰值与备用</text><text x="735" y="65" text-anchor="start" class="ed-text">MW</text><text x="220" y="110" text-anchor="end" class="ed-text">日峰值负荷</text><rect x="240" y="93" width="375.494071146245" height="24" fill="#0877a0" rx="2"/><text x="735" y="110" text-anchor="start" class="ed-text">4,380</text><text x="220" y="152" text-anchor="end" class="ed-text">含备用的容量目标</text><rect x="240" y="135" width="431.81818181818176" height="24" fill="#512888" rx="2"/><text x="735" y="152" text-anchor="start" class="ed-text">5,037</text><text x="220" y="194" text-anchor="end" class="ed-text">现有可信容量</text><rect x="240" y="177" width="415.7868139404768" height="24" fill="#087e75" rx="2"/><text x="735" y="194" text-anchor="start" class="ed-text">4,850</text><path d="M671.8181818181818 88L671.8181818181818 205" fill="none" stroke="#512888" stroke-width="1.5" stroke-dasharray="4 4" stroke-linecap="round" stroke-linejoin="round"/><text x="400" y="229" text-anchor="middle" class="ed-text">日能量：77,960 MWh · 缺额：187 MW</text><path d="M35 249L765 249" fill="none" stroke="#e5dfec" stroke-width="1" stroke-linecap="round" stroke-linejoin="round"/><text x="45" y="280" text-anchor="start" class="ed-label">L04 · 年度组合与容量信用</text><text x="220" y="325" text-anchor="end" class="ed-text">年度容量目标</text><rect x="240" y="308" width="414.07222914072224" height="24" fill="#512888" rx="2"/><text x="735" y="325" text-anchor="start" class="ed-text">4,830</text><rect x="240" y="355" width="186.20390925334343" height="24" fill="#0877a0"/><rect x="426.20390925334345" y="355" width="235.15530528633562" height="24" fill="#b57813"/><rect x="661.3592145396791" y="355" width="0" height="24" fill="#087e75"/><rect x="661.3592145396791" y="355" width="0" height="24" fill="#a33e3e"/><text x="220" y="373" text-anchor="end" class="ed-text">建成组合可信容量</text><text x="735" y="373" text-anchor="start" class="ed-text">4,915</text><path d="M654.0722291407222 302L654.0722291407222 388" fill="none" stroke="#512888" stroke-width="1.5" stroke-dasharray="4 4" stroke-linecap="round" stroke-linejoin="round"/><text x="400" y="410" text-anchor="middle" class="ed-text">CC: 4 × 543 MW · GT: (6 + 7) × 211 MW</text><text x="400" y="437" text-anchor="middle" class="ed-text">蓝：CC · 金：GT · 绿：风电信用 · 红：光伏信用；横向长度按 MW 比例。</text></svg>
