<svg xmlns="http://www.w3.org/2000/svg" viewBox="0 0 800 602" role="img"><title>ECE 685 教学模型图</title><style>.ed-wire{fill:none;stroke:#29262e;stroke-width:2.3;stroke-linecap:round;stroke-linejoin:round}.ed-axis{fill:none;stroke:#b9b1c3;stroke-width:1}.ed-text{font:14px system-ui,sans-serif;fill:#696273}.ed-label{font:16px system-ui,sans-serif;fill:#29262e}.ed-heading{font:600 17px system-ui,sans-serif;fill:#512888}.ed-math{font:italic 21px Georgia,"Times New Roman",serif;fill:#29262e}.ed-small{font:12px system-ui,sans-serif;fill:#696273}.ed-core{stroke:#8b8691;stroke-width:1.4;fill:none}.stage-circuit-wire{fill:none;stroke:#29262e;stroke-width:2.4;stroke-linecap:round;stroke-linejoin:round}.stage-circuit-core{fill:none;stroke:#8b8691;stroke-width:1.4}.stage-circuit-symbol{font:italic 22px Georgia,"Times New Roman",serif;fill:#29262e}.stage-circuit-value{font:14px system-ui,sans-serif;fill:#5a5363}.stage-circuit-heading{font:600 16px system-ui,sans-serif;fill:#512888}</style><defs><marker id="ed-line-capacitance-purple" viewBox="0 0 10 10" refX="9" refY="5" markerWidth="5" markerHeight="5" orient="auto"><path d="M0 0L10 5L0 10Z" fill="#512888"/></marker><marker id="ed-line-capacitance-red" viewBox="0 0 10 10" refX="9" refY="5" markerWidth="5" markerHeight="5" orient="auto"><path d="M0 0L10 5L0 10Z" fill="#a33e3e"/></marker><marker id="ed-line-capacitance-blue" viewBox="0 0 10 10" refX="9" refY="5" markerWidth="5" markerHeight="5" orient="auto"><path d="M0 0L10 5L0 10Z" fill="#0877a0"/></marker><marker id="ed-line-capacitance-gold" viewBox="0 0 10 10" refX="9" refY="5" markerWidth="5" markerHeight="5" orient="auto"><path d="M0 0L10 5L0 10Z" fill="#b57813"/></marker><marker id="ed-line-capacitance-teal" viewBox="0 0 10 10" refX="9" refY="5" markerWidth="5" markerHeight="5" orient="auto"><path d="M0 0L10 5L0 10Z" fill="#087e75"/></marker></defs><text x="400" y="29" text-anchor="middle" class="ed-heading">物理半径决定电容，充电电流超前电压</text><path d="M60 137.5L180 137.5" fill="none" stroke="#b9b1c3" stroke-width="1.3" stroke-dasharray="4 5" stroke-linecap="round" stroke-linejoin="round"/><path d="M180 137.5L360 137.5" fill="none" stroke="#b9b1c3" stroke-width="1.3" stroke-dasharray="4 5" stroke-linecap="round" stroke-linejoin="round"/><path d="M360 137.5L60 137.5" fill="none" stroke="#b9b1c3" stroke-width="1.3" stroke-dasharray="4 5" stroke-linecap="round" stroke-linejoin="round"/><circle cx="60" cy="137.5" r="9" fill="#fff" stroke="#a33e3e" stroke-width="2.5"/><text x="60" y="117.5" text-anchor="middle" class="ed-label">P1</text><circle cx="180" cy="137.5" r="9" fill="#fff" stroke="#0877a0" stroke-width="2.5"/><text x="180" y="117.5" text-anchor="middle" class="ed-label">P2</text><circle cx="360" cy="137.5" r="9" fill="#fff" stroke="#b57813" stroke-width="2.5"/><text x="360" y="117.5" text-anchor="middle" class="ed-label">P3</text><text x="210" y="225" text-anchor="middle" class="ed-small">相位置按距离比例绘制；导线尺寸放大。</text><text x="207" y="254" text-anchor="middle" class="ed-label">r = 14.00 mm · Dm = 6.2145 m</text><path d="M495 213L705 213" fill="none" stroke="#b9b1c3" stroke-width="1" stroke-linecap="round" stroke-linejoin="round"/><path d="M525 85L525 230" fill="none" stroke="#b9b1c3" stroke-width="1" stroke-linecap="round" stroke-linejoin="round"/><path d="M525 213L670 213" fill="none" stroke="#512888" stroke-width="2.2" marker-end="url(#ed-line-capacitance-purple)"/><path d="M525 213L525 97" fill="none" stroke="#087e75" stroke-width="2.2" marker-end="url(#ed-line-capacitance-teal)"/><path d="M560 213 A35 35 0 0 0 525 178" fill="none" stroke="#b57813" stroke-width="1.5" stroke-linecap="round" stroke-linejoin="round"/><text x="605" y="241" text-anchor="middle" class="ed-text">Vφ = 79.67 kV</text><text x="590" y="95" text-anchor="start" class="ed-label" style="fill:#087e75">Ich = 33.09 A</text><text x="552" y="166" text-anchor="middle" class="ed-small">90°</text><text x="610" y="269" text-anchor="middle" class="ed-small">幅值分别归一化</text><text x="400" y="304" text-anchor="middle" class="ed-heading">标称 π：总并联电纳平均分到两端</text><path d="M70 365L245 365" fill="none" stroke="#29262e" stroke-width="2.3" stroke-linecap="round" stroke-linejoin="round"/><path d="M555 365L730 365" fill="none" stroke="#29262e" stroke-width="2.3" stroke-linecap="round" stroke-linejoin="round"/><circle cx="70" cy="365" r="3.5" fill="#fff" stroke="#29262e" stroke-width="1.7"/><circle cx="730" cy="365" r="3.5" fill="#fff" stroke="#29262e" stroke-width="1.7"/><circle cx="140" cy="365" r="2.8" fill="#29262e" stroke="#29262e" stroke-width="1.7"/><circle cx="660" cy="365" r="2.8" fill="#29262e" stroke="#29262e" stroke-width="1.7"/><g transform="translate(245 365) rotate(0)"><path d="M0 0L32.5 0" fill="none" stroke="#29262e" stroke-width="2.3" stroke-linecap="round" stroke-linejoin="round"/><path d="M97.5 0L130 0" fill="none" stroke="#29262e" stroke-width="2.3" stroke-linecap="round" stroke-linejoin="round"/><rect x="32.5" y="-8" width="65" height="16" fill="#fff" stroke="#29262e" stroke-width="2.3"/></g><path d="M375 365L415 365" fill="none" stroke="#29262e" stroke-width="2.3" stroke-linecap="round" stroke-linejoin="round"/><g transform="translate(415 365) rotate(0)"><path d="M0 0L35 0" fill="none" stroke="#29262e" stroke-width="2.3" stroke-linecap="round" stroke-linejoin="round"/><path d="M105 0L140 0" fill="none" stroke="#29262e" stroke-width="2.3" stroke-linecap="round" stroke-linejoin="round"/><path d="M35 0a8.75 8.75 0 0 1 17.5 0a8.75 8.75 0 0 1 17.5 0a8.75 8.75 0 0 1 17.5 0a8.75 8.75 0 0 1 17.5 0" fill="none" stroke="#29262e" stroke-width="2.3" stroke-linecap="round" stroke-linejoin="round"/></g><path d="M140 365L140 408" fill="none" stroke="#29262e" stroke-width="2.3" stroke-linecap="round" stroke-linejoin="round"/><path d="M125 408L155 408" fill="none" stroke="#29262e" stroke-width="2.3" stroke-linecap="round" stroke-linejoin="round"/><path d="M125 419L155 419" fill="none" stroke="#29262e" stroke-width="2.3" stroke-linecap="round" stroke-linejoin="round"/><path d="M140 419L140 465" fill="none" stroke="#29262e" stroke-width="2.3" stroke-linecap="round" stroke-linejoin="round"/><circle cx="140" cy="465" r="2.8" fill="#29262e" stroke="#29262e" stroke-width="1.7"/><path d="M660 365L660 408" fill="none" stroke="#29262e" stroke-width="2.3" stroke-linecap="round" stroke-linejoin="round"/><path d="M645 408L675 408" fill="none" stroke="#29262e" stroke-width="2.3" stroke-linecap="round" stroke-linejoin="round"/><path d="M645 419L675 419" fill="none" stroke="#29262e" stroke-width="2.3" stroke-linecap="round" stroke-linejoin="round"/><path d="M660 419L660 465" fill="none" stroke="#29262e" stroke-width="2.3" stroke-linecap="round" stroke-linejoin="round"/><circle cx="660" cy="465" r="2.8" fill="#29262e" stroke="#29262e" stroke-width="1.7"/><path d="M110 465L690 465" fill="none" stroke="#8b8691" stroke-width="1.7" stroke-linecap="round" stroke-linejoin="round"/><text x="70" y="347" text-anchor="middle" class="ed-label">S</text><text x="730" y="347" text-anchor="middle" class="ed-label">R</text><text x="310" y="340" text-anchor="middle" class="ed-label">Rφ</text><text x="485" y="340" text-anchor="middle" class="ed-label">jXφ</text><text x="118" y="442" text-anchor="end" class="ed-text">j0.2076 mS</text><text x="682" y="442" text-anchor="start" class="ed-text">j0.2076 mS</text><path d="M164 373L164 404" fill="none" stroke="#087e75" stroke-width="2.2" marker-end="url(#ed-line-capacitance-teal)"/><path d="M636 373L636 404" fill="none" stroke="#087e75" stroke-width="2.2" marker-end="url(#ed-line-capacitance-teal)"/><text x="400" y="492" text-anchor="middle" class="ed-small">n：平衡三相中性参考</text><text x="400" y="526" text-anchor="middle" class="ed-label">Btotal = 0.415293 mS · QC = 7.9088 Mvar</text><text x="400" y="555" text-anchor="middle" class="ed-small">QC 为正的容性无功供给；吸收功率 Q = −QC。</text><text x="400" y="579" text-anchor="middle" class="ed-small">充电估算采用全线相同电压；两端实际电流应各使用本端电压。</text></svg>
